<?xml version="1.0" encoding="UTF-8"?>
<svg width="60px" height="51px" viewBox="0 0 60 51" version="1.1" xmlns="http://www.w3.org/2000/svg" xmlns:xlink="http://www.w3.org/1999/xlink">
    <!-- Generator: Sketch 51.3 (57544) - http://www.bohemiancoding.com/sketch -->
    <title>icon/icon-ultra-responsive</title>
    <desc>Created with Sketch.</desc>
    <defs></defs>
    <g id="Home" stroke="none" stroke-width="1" fill="none" fill-rule="evenodd">
        <g id="Landing-Page" transform="translate(-290.000000, -1045.000000)">
            <g id="our-services" transform="translate(135.000000, 930.000000)">
                <g id="ultra-responsive" transform="translate(0.000000, 109.000000)">
                    <g id="icon/icon-ultra-responsive" transform="translate(153.000000, 0.000000)">
                        <rect id="frame" x="0" y="0" width="64" height="64"></rect>
                        <path d="M59,31.5 L58,31.5 L58,10.9038462 C57.99675,8.19692308 55.76,6.0031875 53,6 L11,6 C8.24,6.0031875 6.00325,8.19692308 6,10.9038462 L6,25.6153846 L5,25.6153846 C3.343125,25.6153846 2,26.9326803 2,28.5576923 L2,54.0576923 C2,55.6827043 3.343125,57 5,57 L43,57 C43.55225,57 44,56.5608606 44,56.0192308 C43.99675,53.3123077 41.76,51.1185721 39,51.1153846 L36,51.1153846 L36,45.2307692 L48,45.2307692 L48,54.0576923 C48,55.6827043 49.343125,57 51,57 L59,57 C60.656875,57 62,55.6827043 62,54.0576923 L62,34.4423077 C62,32.8172957 60.656875,31.5 59,31.5 Z M24,54.0576923 C24,54.5993221 23.55225,55.0384615 23,55.0384615 L5,55.0384615 C4.44775,55.0384615 4,54.5993221 4,54.0576923 L4,53.0769231 L24,53.0769231 L24,54.0576923 Z M24,51.1153846 L4,51.1153846 L4,28.5576923 C4,28.0160625 4.44775,27.5769231 5,27.5769231 L23,27.5769231 C23.55225,27.5769231 24,28.0160625 24,28.5576923 L24,51.1153846 Z M39,53.0769231 C40.271,53.0783942 41.403625,53.8637452 41.829,55.0384615 L25.816,55.0384615 C25.9345,54.7243702 25.996625,54.392625 26,54.0576923 L26,53.0769231 L39,53.0769231 Z M26,51.1153846 L26,45.2307692 L28,45.2307692 L28,51.1153846 L26,51.1153846 Z M30,51.1153846 L30,45.2307692 L34,45.2307692 L34,51.1153846 L30,51.1153846 Z M48,43.2692308 L26,43.2692308 L26,37.3846154 L48,37.3846154 L48,43.2692308 Z M48,34.4423077 L48,35.4230769 L26,35.4230769 L26,28.5576923 C25.996625,28.0923173 25.87925,27.6345433 25.658,27.2228654 C25.673,27.2091346 25.693,27.2052115 25.707,27.1905 L35.607,17.4808846 C35.99075,17.091274 35.97975,16.4703245 35.5825,16.0940769 C35.195,15.727024 34.580625,15.727024 34.193,16.0940769 L24.293,25.8036923 C24.269,25.8282115 24.259,25.8595962 24.238,25.8850962 C23.85,25.7085577 23.427625,25.6166106 23,25.6153846 L8,25.6153846 L8,10.9038462 C8,9.27883413 9.343125,7.96153846 11,7.96153846 L53,7.96153846 C54.656875,7.96153846 56,9.27883413 56,10.9038462 L56,31.5 L51,31.5 C49.343125,31.5 48,32.8172957 48,34.4423077 Z M60,54.0576923 C60,54.5993221 59.55225,55.0384615 59,55.0384615 L51,55.0384615 C50.44775,55.0384615 50,54.5993221 50,54.0576923 L50,53.0769231 L60,53.0769231 L60,54.0576923 Z M60,51.1153846 L50,51.1153846 L50,34.4423077 C50,33.9006779 50.44775,33.4615385 51,33.4615385 L59,33.4615385 C59.55225,33.4615385 60,33.9006779 60,34.4423077 L60,51.1153846 Z M13.949,37.5533077 C14.3532715,38.0369059 14.3532715,38.5786947 13.949,38.9401154 L9.707,43.1005385 C9.699,43.1086298 9.690875,43.1167212 9.6825,43.1245673 C9.28525,43.5009375 8.65225,43.490149 8.2685,43.1005385 C7.88475,42.7109279 7.89575,42.090101 8.293,41.7137308 L12.535,37.5533077 C12.9255,37.1704399 13.5585,37.1704399 13.949,37.5533077 Z M19.9245,37.5533077 C20.32175,37.9295553 20.332625,38.5505048 19.949,38.9401154 L15.707,43.1005385 C15.699,43.1086298 15.690875,43.1167212 15.6825,43.1245673 C15.28525,43.5009375 14.652125,43.490149 14.2685,43.1005385 C13.88475,42.7109279 13.89575,42.0899784 14.293,41.7137308 L18.535,37.5533077 C18.922625,37.1862548 19.537,37.1862548 19.9245,37.5533077 Z M41.6825,16.0950577 C42.07975,16.4713053 42.09075,17.0922548 41.707,17.4818654 L31.807,27.1914808 C31.798875,27.1996947 31.79075,27.2077861 31.782375,27.2156322 C31.385125,27.5918798 30.752,27.5810913 30.368375,27.1914808 C29.98475,26.8018702 29.99575,26.1809207 30.393,25.8046731 L40.293,16.0950577 C40.680625,15.7280048 41.295,15.7280048 41.6825,16.0950577 Z M57.0965,40.20825 C57.49375,40.5846202 57.50475,41.2054471 57.121,41.5950577 L54.293,44.3686731 C54.285,44.3767644 54.27675,44.3848558 54.2685,44.3927019 C53.87125,44.7690721 53.23825,44.7582837 52.8545,44.3686731 C52.47075,43.9790625 52.48175,43.3582356 52.879,42.9818654 L55.707,40.20825 C56.0945,39.8410745 56.709,39.8410745 57.0965,40.20825 Z M32.02,39.3461538 C32.57225,39.3461538 33.02,39.7852933 33.02,40.3269231 C33.02,40.8685529 32.57225,41.3076923 32.02,41.3076923 C31.46775,41.3103894 31.01775,40.8734567 31.015,40.3318269 C31.01225,39.7901971 31.45775,39.348851 32.01,39.3461538 L32.02,39.3461538 Z M34,9.92307692 C34.55225,9.92307692 35,10.3622163 35,10.9038462 C35,11.445476 34.55225,11.8846154 34,11.8846154 L30,11.8846154 C29.44775,11.8846154 29,11.445476 29,10.9038462 C29,10.3622163 29.44775,9.92307692 30,9.92307692 L34,9.92307692 Z" id="Shape" fill="#FF7F57" fill-rule="nonzero"></path>
                    </g>
                </g>
            </g>
        </g>
    </g>
</svg>