<?xml version="1.0" encoding="UTF-8"?>
<svg width="110px" height="36px" viewBox="0 0 110 36" version="1.1" xmlns="http://www.w3.org/2000/svg" xmlns:xlink="http://www.w3.org/1999/xlink">
    <!-- Generator: Sketch 51.3 (57544) - http://www.bohemiancoding.com/sketch -->
    <title>logo</title>
    <desc>Created with Sketch.</desc>
    <defs></defs>
    <g id="Symbols" stroke="none" stroke-width="1" fill="none" fill-rule="evenodd">
        <g id="header" transform="translate(-135.000000, -40.000000)" fill="#2557AB" fill-rule="nonzero">
            <g id="logo" transform="translate(135.000000, 40.000000)">
                <path d="M54.2190514,21 C55.193959,21 56.0887352,21.1415133 56.9024099,21.4253541 C57.7199552,21.7105451 58.3833456,22.0889703 58.8905619,22.5625922 L59.0811955,22.7405995 L57.2567213,24.7193606 L57.0654028,24.5059767 C56.7917387,24.2007501 56.4021971,23.9366162 55.8944526,23.7159327 C55.3877122,23.4956857 54.8355528,23.3853596 54.2357567,23.3853596 C53.6472088,23.3853596 53.117752,23.4900824 52.6452028,23.6985856 C52.1713348,23.9076707 51.7697129,24.1937756 51.4381469,24.5578039 C51.104726,24.9238687 50.8465666,25.3531516 50.6632077,25.8474723 C50.479429,26.3429248 50.387271,26.8821156 50.387271,27.4664624 C50.387271,28.0736485 50.4796101,28.6271401 50.6635202,29.1282213 C50.846658,29.6271984 51.1070291,30.0584432 51.445133,30.4239386 C51.7814425,30.7874941 52.1904452,31.0707263 52.674522,31.2744976 C53.1590393,31.4784543 53.7122921,31.5811029 54.3359886,31.5811029 C55.1330629,31.5811029 55.8308997,31.4686946 56.4304168,31.2454776 L56.4304168,28.6675266 L53.9413256,28.6675266 L53.9413256,26.3995485 L58.9905056,26.3995485 L58.9905056,32.9803516 L58.8427199,33.0517781 C58.2230021,33.3512945 57.544375,33.5841116 56.8071561,33.7504727 C56.0687833,33.9170942 55.2229273,34 54.2691674,34 C53.2800887,34 52.3739395,33.8406765 51.5521588,33.5211718 C50.7293559,33.2012696 50.0201521,32.7519566 49.4265916,32.1736647 C48.8328815,31.5952272 48.3701927,30.9058595 48.0393198,30.1075818 C47.7082953,29.3089384 47.5431919,28.4279492 47.5431919,27.4664624 C47.5431919,26.4817039 47.7142004,25.588499 48.0572848,24.7888185 C48.3999131,23.9902011 48.8717869,23.3089396 49.4721823,22.7472215 C50.0713244,22.186676 50.7775607,21.7549059 51.5889605,21.4523837 C52.3983563,21.1506087 53.2755052,21 54.2190514,21 Z M93.4848824,21 C93.8790755,21 94.2894987,21.0377167 94.7161227,21.112949 C95.1455762,21.1886802 95.5580777,21.3053193 95.9533616,21.4628666 C96.3489556,21.6205375 96.7215812,21.8163248 97.0709644,22.0501319 C97.42951,22.2900706 97.7351961,22.5788684 97.9869634,22.9158336 L98.1395348,23.120035 L96.1245925,24.7212587 L95.9643013,24.502894 C95.6819958,24.1183093 95.3156663,23.8387403 94.8603438,23.6609977 C94.3885037,23.4768071 93.9303939,23.3853596 93.4848824,23.3853596 C92.9078919,23.3853596 92.3871479,23.4899041 91.9203619,23.6981528 C91.4511965,23.9074631 91.0487106,24.1941835 90.710964,24.5592927 C90.3725922,24.9250777 90.1121436,25.3538363 89.9290387,25.8474723 C89.74526,26.3429248 89.6531019,26.8821156 89.6531019,27.4664624 C89.6531019,28.0859794 89.7430492,28.6489578 89.9221167,29.1564815 C90.1000455,29.6607776 90.35229,30.0914836 90.6790391,30.4507114 C91.0047656,30.8088151 91.394692,31.0861703 91.8510081,31.2839646 C92.3071264,31.4816732 92.8232463,31.5811029 93.4013559,31.5811029 C93.9962575,31.5811029 94.5179743,31.4644372 94.9697523,31.2325366 C95.424072,30.9993313 95.7877133,30.6934317 96.0638192,30.3136267 L96.2149854,30.1056859 L98.3387563,31.6043064 L98.1660654,31.8219123 C97.6180112,32.5125093 96.9463282,33.048966 96.1533523,33.4294019 C95.3590345,33.8104815 94.4353615,34 93.3846505,34 C92.4282407,34 91.5465066,33.8403946 90.7410541,33.5204794 C89.9347686,33.2002334 89.2394545,32.7505044 88.6571667,32.1718491 C88.0750229,31.5933369 87.6211347,30.9040764 87.2961773,30.1060708 C86.9711304,29.3078453 86.8090229,28.4273952 86.8090229,27.4664624 C86.8090229,26.4817039 86.9800314,25.588499 87.3231158,24.7888185 C87.665744,23.9902011 88.1376179,23.3089396 88.7380133,22.7472215 C89.3371553,22.186676 90.0433917,21.7549059 90.8547915,21.4523837 C91.6641873,21.1506087 92.5413362,21 93.4848824,21 Z M41.5360807,21.3018381 L46.8560907,33.6981619 L43.8783606,33.6981619 L42.7758101,30.9816188 L38.000322,30.9816188 L36.9311822,33.6981619 L34,33.6981619 L39.372338,21.3018381 L41.5360807,21.3018381 Z M40.3931907,24.8135014 L38.921456,28.6465656 L41.8384077,28.6465656 L40.3931907,24.8135014 Z M70.4252902,21.3018381 L70.4252902,23.6704289 L64.6953689,23.6704289 L64.6953689,26.1647856 L70.1245946,26.1647856 L70.1245946,28.4663012 L64.6953689,28.4663012 L64.6953689,31.2960335 L70.7259858,31.2960335 L70.7259858,33.6981619 L62.0684589,33.6981619 L62.0684589,21.3018381 L70.4252902,21.3018381 Z M76.4987793,21.3018381 L81.6220242,29.5864492 L81.6220242,21.3018381 L84.2489342,21.3018381 L84.2489342,33.6981619 L81.1690673,33.6981619 L75.9296898,25.1361707 L75.9296898,33.6981619 L73.3027799,33.6981619 L73.3027799,21.3018381 L76.4987793,21.3018381 Z M101.242279,21.3018381 L104.068946,26.0521046 L106.927374,21.3018381 L110,21.3018381 L105.331035,28.3671342 L105.331035,33.6981619 L102.704125,33.6981619 L102.704125,28.3671342 L98.0351606,21.3018381 L101.242279,21.3018381 Z" id="LASTDOORAGENCY"></path>
                <polygon id="F" transform="translate(12.000000, 18.000000) scale(-1, -1) translate(-12.000000, -18.000000) " points="8.70386266 7.42372881 8.70386266 14.8474576 22.8154506 14.8474576 22.8154506 22.0169492 8.70386266 22.0169492 8.70386266 36 0 36 0 0 24 0 24 7.42372881"></polygon>
                <path d="M35.7577502,3.07142857 L43.6587487,3.07142857 L43.427933,4.67857143 L37.2314196,4.67857143 L36.681013,8.64285714 L42.4514051,8.64285714 L42.2383445,10.25 L36.4679523,10.25 L35.7044851,15.7142857 L34,15.7142857 L35.7577502,3.07142857 Z M46.7757468,2.21428571 L48.3737016,2.21428571 L46.491666,15.7142857 L44.8937112,15.7142857 L46.7757468,2.21428571 Z M57.4741525,15.7142857 L55.8761978,15.7142857 L56.0537483,14.4107143 L56.0182382,14.4107143 C55.7459927,14.8630975 55.3435488,15.2291653 54.8108946,15.5089286 C54.2782404,15.7886919 53.6864112,15.9285714 53.0353893,15.9285714 C52.6211027,15.9285714 52.2393729,15.8660721 51.8901884,15.7410714 C51.541004,15.6160708 51.2450894,15.4226204 51.0024358,15.1607143 C50.7597822,14.8988082 50.5851926,14.5625021 50.4786617,14.1517857 C50.3721309,13.7410694 50.354376,13.2559552 50.4253966,12.6964286 L51.1888638,7.25 L52.7868186,7.25 L52.0943715,12.25 C52.0351877,12.6428591 52.0381469,12.9791653 52.1032491,13.2589286 C52.1683512,13.5386919 52.2778396,13.7648801 52.4317175,13.9375 C52.5855954,14.1101199 52.7749808,14.2351187 52.9998792,14.3125 C53.2247777,14.3898813 53.4615093,14.4285714 53.7100813,14.4285714 C54.3729399,14.4285714 54.9588508,14.2053594 55.4678315,13.7589286 C55.9768123,13.3124978 56.3023183,12.595243 56.4443594,11.6071429 L57.0480312,7.25 L58.645986,7.25 L57.4741525,15.7142857 Z M62.4731862,8.64285714 L60.6621709,8.64285714 L60.8574764,7.25 L62.6684918,7.25 L62.9348176,5.35714286 C63.1005323,4.22618482 63.4349158,3.38393134 63.9379781,2.83035714 C64.4410404,2.27678295 65.2192958,2 66.2727675,2 C66.4503189,2 66.6367451,2.00595232 66.8320517,2.01785714 C67.0273583,2.02976196 67.2315393,2.06547589 67.444601,2.125 L67.0717449,3.55357143 C66.9297038,3.49404732 66.7876648,3.45238107 66.6456236,3.42857143 C66.5035825,3.40476179 66.3497069,3.39285714 66.1839923,3.39285714 C65.8880732,3.39285714 65.6454233,3.43749955 65.4560351,3.52678571 C65.2666469,3.61607188 65.1127713,3.74404679 64.9944037,3.91071429 C64.8760361,4.07738179 64.7843026,4.27678455 64.7192004,4.50892857 C64.6540982,4.74107259 64.5978745,5.00595089 64.5505274,5.30357143 L64.2842016,7.25 L66.1839923,7.25 L65.9886867,8.64285714 L64.071141,8.64285714 L63.0946131,15.7142857 L61.4966583,15.7142857 L62.4731862,8.64285714 Z M69.0524197,8.64285714 L67.2414043,8.64285714 L67.4367099,7.25 L69.2477253,7.25 L69.5140511,5.35714286 C69.6797657,4.22618482 70.0141492,3.38393134 70.5172115,2.83035714 C71.0202739,2.27678295 71.7985292,2 72.852001,2 C73.0295524,2 73.2159786,2.00595232 73.4112851,2.01785714 C73.6065917,2.02976196 73.8107727,2.06547589 74.0238344,2.125 L73.6509783,3.55357143 C73.5089372,3.49404732 73.3668982,3.45238107 73.2248571,3.42857143 C73.0828159,3.40476179 72.9289404,3.39285714 72.7632257,3.39285714 C72.4673067,3.39285714 72.2246567,3.43749955 72.0352685,3.52678571 C71.8458804,3.61607188 71.6920048,3.74404679 71.5736372,3.91071429 C71.4552696,4.07738179 71.363536,4.27678455 71.2984339,4.50892857 C71.2333317,4.74107259 71.1771079,5.00595089 71.1297609,5.30357143 L70.8634351,7.25 L72.7632257,7.25 L72.5679201,8.64285714 L70.6503744,8.64285714 L69.6738465,15.7142857 L68.0758918,15.7142857 L69.0524197,8.64285714 Z M74.5130848,7.25 L76.3596103,7.25 L77.93981,13.8571429 L77.9753201,13.8571429 L81.2777599,7.25 L83,7.25 L77.5669539,17.5357143 C77.3775657,17.9047638 77.1852212,18.2410699 76.9899146,18.5446429 C76.7946081,18.8482158 76.5756313,19.1071418 76.3329777,19.3214286 C76.0903241,19.5357154 75.8092052,19.7023804 75.4896127,19.8214286 C75.1700201,19.9404768 74.7912495,20 74.3532893,20 C74.1165541,20 73.8798224,19.9851192 73.6430872,19.9553571 C73.406352,19.9255951 73.1873752,19.8630957 72.9861503,19.7678571 L73.3590064,18.3035714 C73.6549254,18.4345245 73.9685948,18.5 74.3000242,18.5 C74.5485961,18.5 74.7646138,18.4672622 74.9480836,18.4017857 C75.1315534,18.3363092 75.2913473,18.2410721 75.42747,18.1160714 C75.5635928,17.9910708 75.6878769,17.8452389 75.8003261,17.6785714 C75.9127753,17.5119039 76.0222637,17.3214296 76.1287946,17.1071429 L76.8212416,15.7678571 L74.5130848,7.25 Z" id="Fluffy"></path>
            </g>
        </g>
    </g>
</svg>