<?xml version="1.0" encoding="UTF-8"?>
<svg width="46px" height="64px" viewBox="0 0 46 64" version="1.1" xmlns="http://www.w3.org/2000/svg" xmlns:xlink="http://www.w3.org/1999/xlink">
    <!-- Generator: Sketch 51.3 (57544) - http://www.bohemiancoding.com/sketch -->
    <title>icon/icon-online-support</title>
    <desc>Created with Sketch.</desc>
    <defs></defs>
    <g id="Home" stroke="none" stroke-width="1" fill="none" fill-rule="evenodd">
        <g id="Landing-Page" transform="translate(-1098.000000, -1039.000000)">
            <g id="our-services" transform="translate(135.000000, 930.000000)">
                <g id="support-&amp;-updates" transform="translate(800.000000, 109.000000)">
                    <g id="icon/icon-online-support" transform="translate(154.000000, 0.000000)">
                        <rect id="frame" x="0" y="0" width="64" height="64"></rect>
                        <path d="M54.0541952,62.108999 L49.9528209,62.108999 L49.9528209,59.9448729 C49.9528209,59.4227476 49.5293094,58.9993724 49.0070161,58.9993724 C48.4847229,58.9993724 48.0612114,59.4227476 48.0612114,59.9448729 L48.0612114,62.108999 L46.0973286,62.108999 C46.169977,61.8673739 46.2101149,61.6118738 46.2101149,61.3468736 L46.2101149,44.8647401 C46.2101149,43.1864892 44.8442998,41.8211135 43.1655089,41.8211135 L38.6909421,41.8211135 C40.2724517,40.780113 41.6090073,39.3808622 42.5898234,37.7076114 L43.181389,37.8459864 C46.0545648,38.5181118 48.0612114,41.0476131 48.0612114,43.9974896 L48.0612114,55.4904956 C48.0612114,56.0126209 48.4847229,56.4359961 49.0070161,56.4359961 C49.5293094,56.4359961 49.9528209,56.0126209 49.9528209,55.4904956 L49.9528209,43.9974896 C49.9528209,40.1647376 47.3454808,36.8779859 43.6124029,36.0047355 L39.603236,35.066985 C38.2235415,34.7442348 37.259981,33.5296092 37.259981,32.1131085 L37.259981,30.6893577 C38.3140706,30.0332324 39.2444954,29.1982319 40.0111175,28.2273564 C42.3051066,28.2043564 44.1684571,26.3553555 44.2144719,24.0676043 C45.3229541,23.7251041 46.1307143,22.6912286 46.1307143,21.4721029 L46.1307143,16.2083502 C46.1307143,14.9335995 45.2464294,13.863974 44.059797,13.5729738 C44.1285692,13.5700988 44.1978415,13.5613488 44.2671138,13.5425988 C44.7714013,13.4064738 45.0698725,12.8874735 44.9337036,12.3833482 C43.9545131,8.75672134 42.3762546,5.87196984 40.2430672,3.80921877 C37.7877761,1.43484254 35.0683998,0.154716878 32.1607129,0.0045918002 C32.0191673,-0.0021582033 29.4347095,-0.11140826 26.5060158,1.27059246 C25.1700854,0.599592109 23.67923,0.246216926 22.1747452,0.246216926 C16.8537807,0.246216926 12.5248858,4.57371917 12.5248858,9.89297193 C12.5248858,13.2828487 14.2839526,16.3852253 17.1545026,18.1326012 L17.1545026,21.4721029 C17.1545026,22.9698537 18.3733953,24.1883543 19.8716281,24.1883543 L21.2934612,24.1883543 C22.0025647,27.0636058 23.8820453,29.4816071 26.3959804,30.9089828 L26.3959804,32.1131085 C26.3959804,33.5296092 25.4324199,34.7442348 24.0526003,35.066985 L20.0435585,36.0047355 C16.3103556,36.8778609 13.7030154,40.1647376 13.7030154,43.9974896 L13.7030154,62.108999 L9.94580476,62.108999 C9.42351146,62.108999 9,62.5323742 9,63.0544995 C9,63.5766248 9.42351146,64 9.94580476,64 L14.6488202,64 L19.8878833,64 L43.5561348,64 L49.0070161,64 L54.0541952,64 C54.5764885,64 55,63.5766248 55,63.0544995 C55,62.5323742 54.5766136,62.108999 54.0541952,62.108999 Z M41.4505813,25.8104802 C41.673153,25.2897299 41.8538362,24.7473546 41.9917557,24.1882293 L42.3144847,24.1882293 C42.2572162,24.8416047 41.9328617,25.419105 41.4505813,25.8104802 Z M44.2389798,16.2082252 L44.2389798,21.4719779 C44.2389798,21.9269782 43.8686104,22.2972284 43.4134638,22.2972284 L42.3023558,22.2972284 L42.3023558,21.638103 L42.3023558,15.3829748 L43.4134638,15.3829748 C43.8686104,15.3829748 44.2389798,15.753225 44.2389798,16.2082252 Z M17.1833869,15.83235 C15.4469524,14.3763493 14.4163703,12.2188481 14.4163703,9.89297193 C14.4163703,5.61646971 17.8967417,2.13721791 22.1746202,2.13721791 C22.95012,2.13721791 23.7204933,2.25459297 24.4564804,2.48021808 C24.1916451,2.67184318 23.9278101,2.87684329 23.6666009,3.09909341 C23.2687227,3.43746858 23.2207072,4.03421889 23.5591913,4.4318441 C23.8976754,4.8297193 24.4946177,4.87759433 24.8923709,4.53921915 C28.1725528,1.74896771 32.0267947,1.89096778 32.0629314,1.89321778 C34.5008419,2.01909285 36.8104611,3.12109342 38.9277684,5.16846948 C40.8120005,6.99047042 42.2182036,9.58384677 43.1072401,12.8762235 C43.1877661,13.1744736 43.4034606,13.3982237 43.6696713,13.5050988 C43.5851441,13.4970988 43.4998666,13.4920988 43.4133387,13.4920988 L42.2788482,13.4920988 C42.1843177,13.0695986 41.8075713,12.7535984 41.356426,12.7535984 C41.1682403,12.7535984 40.993309,12.8092234 40.8458865,12.9039735 C40.8430105,12.9058485 40.8403847,12.9067235 40.8375088,12.9085985 C39.7187733,13.6424739 37.0634177,14.0930991 35.6522129,14.0930991 C32.1998505,14.0930991 28.8752793,12.8602235 26.0541202,10.6088473 L22.7260478,7.02234544 C22.7803153,6.9400954 22.8345828,6.85809536 22.8897256,6.77834531 C23.1866963,6.34872009 23.0790366,5.75984479 22.6493981,5.46296963 C22.2197597,5.16609448 21.6305699,5.27371953 21.3335992,5.70321976 C21.128408,5.99996991 20.9284686,6.31272007 20.7385324,6.63247024 C20.7365318,6.63534524 20.7356565,6.63709524 20.7345311,6.63884524 C20.7317802,6.64347024 20.7287793,6.64809525 20.7260284,6.65272025 C19.9527792,7.89709589 19.4108546,9.2495966 19.1147592,10.6762223 C18.9090679,11.6672229 18.8279168,12.6762234 18.8688049,13.6859739 C17.9780179,14.0412241 17.3198058,14.8535995 17.1833869,15.83235 Z M20.9826111,21.637978 L20.9826111,22.2972284 L19.871503,22.2972284 C19.4163564,22.2972284 19.045987,21.9269782 19.045987,21.4719779 L19.045987,17.8538511 C19.0922519,17.686976 19.0901263,17.5142259 19.045987,17.3531008 L19.045987,16.2081002 C19.045987,15.7531 19.4163564,15.3828498 19.871503,15.3828498 L20.9826111,15.3828498 L20.9826111,21.637978 Z M21.7198486,12.7772234 C21.5918074,12.8060984 21.4740194,12.8609735 21.3714864,12.9359735 C21.1669205,13.0247236 20.9596037,13.1085986 20.7487857,13.1848486 C20.7489108,12.4715983 20.8218092,11.7607229 20.9672311,11.0604725 C21.1232814,10.3085971 21.3607329,9.58134677 21.6747091,8.88547141 C22.3909399,9.77572187 23.1601877,10.5902223 23.9745751,11.3243477 C23.170191,11.982723 22.4769676,12.3857232 22.1669927,12.5522233 C22.0201954,12.6310984 21.8706472,12.7052234 21.7198486,12.7772234 Z M22.8742206,21.638103 L22.8742206,14.4374743 L22.8742206,14.3152242 C22.9369908,14.2828492 23.0002612,14.2513492 23.0624062,14.2179742 C23.4634104,14.0025991 24.4099654,13.4505988 25.4645552,12.5412233 C28.4880295,14.7698495 32.0010364,15.9838501 35.652338,15.9838501 C36.8305926,15.9838501 38.824235,15.722975 40.4107462,15.1735997 L40.4107462,21.637978 C40.4107462,23.3663539 39.9057085,24.9779798 39.038429,26.3372305 L32.6473697,26.3372305 C32.1250764,26.3372305 31.7015649,26.7606057 31.7015649,27.282731 C31.7015649,27.8048562 32.1250764,28.2282314 32.6473697,28.2282314 L37.4142807,28.2282314 C35.8707834,29.5808571 33.8515077,30.4034826 31.6424209,30.4034826 C26.807613,30.4036076 22.8742206,26.4713555 22.8742206,21.638103 Z M24.4836142,36.9082359 C26.7233359,36.3843607 28.2875899,34.4124847 28.2875899,32.1131085 L28.2875899,31.7508583 C29.3433051,32.1017335 30.4705433,32.2946086 31.6425459,32.2946086 C32.9527181,32.2946086 34.2078725,32.0557334 35.3683715,31.6214832 L35.3683715,32.1129835 C35.3683715,34.4123597 36.9326255,36.3843607 39.1723472,36.9081109 L40.6453218,37.2526111 C39.1272077,39.5427373 36.7907048,41.1529881 34.079081,41.7402385 C33.9988052,41.7576135 33.923781,41.7857385 33.8536334,41.8209885 L29.8025781,41.8209885 C29.7324304,41.7857385 29.6574063,41.7576135 29.5771304,41.7402385 C26.8655067,41.1529881 24.5288787,39.5426123 23.0107646,37.2526111 L24.4836142,36.9082359 Z M44.3185054,61.3468736 C44.3185054,61.7671238 43.9765202,62.108999 43.5561348,62.108999 L19.8878833,62.108999 C19.4674979,62.108999 19.1255127,61.7671238 19.1255127,61.3468736 L19.1255127,49.4917425 C19.1255127,48.9696172 18.7020012,48.546242 18.1797079,48.546242 C17.6574146,48.546242 17.2339031,48.9696172 17.2339031,49.4917425 L17.2339031,61.3468736 C17.2339031,61.6118738 17.2740411,61.8673739 17.3466895,62.108999 L15.5946249,62.108999 L15.5946249,43.9974896 C15.5946249,41.0476131 17.6012715,38.5179868 20.4745724,37.8459864 L21.0660129,37.7076114 C22.046954,39.3808622 23.3833846,40.780113 24.9648942,41.8211135 L20.2785092,41.8211135 C18.5997182,41.8211135 17.2339031,43.1864892 17.2339031,44.8647401 L17.2339031,45.9513656 C17.2339031,46.4734909 17.6574146,46.8968661 18.1797079,46.8968661 C18.7020012,46.8968661 19.1255127,46.4734909 19.1255127,45.9513656 L19.1255127,44.8647401 C19.1255127,44.2291147 19.6428043,43.7121145 20.2785092,43.7121145 L43.1655089,43.7121145 C43.8013388,43.7121145 44.3185054,44.2292397 44.3185054,44.8647401 L44.3185054,61.3468736 Z M27.7900546,18.5651014 C27.1953975,18.5651014 26.7133326,18.0831917 26.7133326,17.4887259 C26.7133326,16.8942601 27.1953975,16.4123503 27.7900546,16.4123503 C28.3847117,16.4123503 28.8667765,16.8942601 28.8667765,17.4887259 C28.8667765,18.0831917 28.3847117,18.5651014 27.7900546,18.5651014 Z M35.1111636,18.5651014 C34.5165065,18.5651014 34.0344417,18.0831917 34.0344417,17.4887259 C34.0344417,16.8942601 34.5165065,16.4123503 35.1111636,16.4123503 C35.7058207,16.4123503 36.1878855,16.8942601 36.1878855,17.4887259 C36.1878855,18.0831917 35.7058207,18.5651014 35.1111636,18.5651014 Z M34.7546737,22.9282287 C35.1209167,23.2943539 35.1209167,23.8879792 34.7546737,24.2539794 C33.9326589,25.0758548 32.8394316,25.528605 31.6766819,25.528605 C30.5139323,25.528605 29.420705,25.0759798 28.5985651,24.2539794 C28.2323221,23.8878542 28.2323221,23.2942289 28.5985651,22.9282287 C28.9648081,22.5621035 29.5586244,22.5619785 29.9247424,22.9282287 C30.3926432,23.3961039 31.0148437,23.6536041 31.6765569,23.6536041 C32.3382701,23.6536041 32.9604706,23.3959789 33.4284964,22.9282287 C33.7947394,22.5621035 34.3885558,22.5621035 34.7546737,22.9282287 Z" id="Shape" fill="#FF7F57" fill-rule="nonzero"></path>
                    </g>
                </g>
            </g>
        </g>
    </g>
</svg>