<?xml version="1.0" encoding="UTF-8"?>
<svg width="42px" height="60px" viewBox="0 0 42 60" version="1.1" xmlns="http://www.w3.org/2000/svg" xmlns:xlink="http://www.w3.org/1999/xlink">
    <!-- Generator: Sketch 51.3 (57544) - http://www.bohemiancoding.com/sketch -->
    <title>icon/icon-award-winning-design</title>
    <desc>Created with Sketch.</desc>
    <defs></defs>
    <g id="Home" stroke="none" stroke-width="1" fill="none" fill-rule="evenodd">
        <g id="Landing-Page" transform="translate(-698.000000, -1041.000000)">
            <g id="our-services" transform="translate(135.000000, 930.000000)">
                <g id="award-winning-design" transform="translate(400.000000, 109.000000)">
                    <g id="icon/icon-award-winning-design" transform="translate(152.000000, 0.000000)">
                        <rect id="frame" x="0" y="0" width="64" height="64"></rect>
                        <path d="M51.5444446,24.0648087 C51.5444446,23.3098853 51.872351,22.4355477 52.2195598,21.5098818 C52.7437449,20.1124182 53.2857208,18.6672591 52.8274657,17.2450688 C52.3500247,15.7633472 50.9782827,14.8627595 49.7680522,14.0678751 C48.9731697,13.545921 48.2222407,13.0530294 47.8131717,12.4864267 C47.3953816,11.9078709 47.1578239,11.0267364 46.9061964,10.093922 C46.5300342,8.69880214 46.1036396,7.11758811 44.8707346,6.2133676 C43.6502715,5.31828773 42.103995,5.39176443 40.6088812,5.4627802 C39.6430688,5.50871779 38.730861,5.55207724 38.0413273,5.32637368 C37.3995841,5.11637327 36.7134225,4.5573878 35.9870283,3.96558977 C34.8557511,3.04449423 33.5735439,2 32.0000581,2 C30.4264561,2 29.1442489,3.04449423 28.0129717,3.96605852 C27.2865775,4.55773937 26.6004159,5.11672483 25.9589053,5.32672524 C25.2693715,5.55242881 24.3570475,5.50895216 23.3912351,5.46313176 C21.8961213,5.39199881 20.3497285,5.3185221 19.1292654,6.21371916 C17.8963604,7.11793968 17.470082,8.6991537 17.0938036,10.0942736 C16.8422924,11.0270879 16.6046184,11.9082225 16.1868283,12.4867783 C15.7777593,13.0532638 15.0268303,13.5462725 14.2319478,14.0682267 C13.021601,14.8628767 11.6498591,15.7635815 11.1726505,17.245186 C10.7143955,18.6673763 11.2563713,20.1125353 11.7805565,21.5101162 C12.127649,22.4357821 12.4555554,23.3101197 12.4555554,24.0650431 C12.4555554,24.8199664 12.127649,25.6943041 11.7804402,26.6199699 C11.2562551,28.0175508 10.7142792,29.4627098 11.1725343,30.8849001 C11.6499753,32.3665046 13.0217173,33.2672095 14.2319478,34.0618594 C15.0268303,34.5838136 15.7777593,35.0768224 16.1868283,35.6433078 C16.6046184,36.2218637 16.8421761,37.1031154 17.0938036,38.0358125 C17.4699658,39.4309324 17.8963604,41.0121465 19.1292654,41.916367 C20.3496122,42.8114468 21.8958887,42.7379701 23.3911188,42.6669544 C24.3568149,42.6208996 25.269139,42.5776573 25.9586727,42.8033609 C26.6004159,43.0133613 27.2865775,43.5723468 28.013088,44.1641448 C28.559715,44.609341 29.1421559,45.0824278 29.7750618,45.4534442 L26.0232075,59.0166347 L22.5606551,55.1278771 C22.3064694,54.8424078 21.9112375,54.731431 21.5470521,54.8429938 L16.5895021,56.3654967 L19.6977528,45.1318811 C19.8428688,44.6072316 19.538567,44.0633633 19.0179865,43.9169959 C18.4971734,43.7708628 17.9576394,44.0774259 17.8125233,44.6020753 L14.2247386,57.5683116 C14.1288085,57.9151873 14.2279944,58.2872583 14.4836916,58.5388603 C14.7393889,58.7905796 15.1110162,58.8816345 15.4526435,58.7766342 L21.5205405,56.913115 L25.7580917,61.6724602 C25.9459983,61.8835153 26.2120444,62.0001171 26.4864626,61.9999999 C26.5605322,61.9999999 26.6352995,61.9915624 26.7093692,61.9741014 C27.0573919,61.89207 27.3332054,61.6254679 27.4292517,61.2785923 L31.6255239,46.1074689 C31.7486632,46.1204767 31.8729653,46.129383 31.9998256,46.129383 C32.126337,46.129383 32.2505228,46.1203595 32.3734296,46.1074689 L36.571446,61.2785923 C36.667376,61.6254679 36.9434221,61.89207 37.2913285,61.9741014 C37.3652819,61.9914452 37.4399329,61.9999999 37.5140026,61.9999999 C37.788537,61.9999999 38.0545831,61.8833981 38.2424897,61.672343 L42.4786455,56.9129978 L48.5478216,58.7763999 C48.889449,58.8812829 49.2608437,58.790228 49.5166572,58.538626 C49.7722382,58.2869067 49.8715404,57.9149529 49.7756103,57.5681944 L45.3321292,41.5076162 C46.2178254,40.5812472 46.5811969,39.2394477 46.9058476,38.0352266 C47.1573588,37.1024123 47.3950328,36.2212777 47.8128228,35.6427219 C48.2218919,35.0762364 48.9728209,34.5832277 49.7677033,34.0612735 C50.9780502,33.2666235 52.3497921,32.3659186 52.8270006,30.8844314 C53.2852557,29.4622411 52.7432798,28.017082 52.2190946,26.6195012 C51.8722347,25.6940697 51.5444446,24.8198492 51.5444446,24.0648087 Z M47.4113119,56.3654967 L42.4522502,54.8429938 C42.0881811,54.7309623 41.6927166,54.8422906 41.438531,55.1278771 L37.9773739,59.0165175 L34.2242405,45.453327 C34.8574953,45.0821935 35.4400525,44.6091066 35.986912,44.1635589 C36.7133062,43.571878 37.3994679,43.0130097 38.041211,42.8027749 C38.7309773,42.5770714 39.6431851,42.620548 40.6088812,42.6663684 C41.6144609,42.714181 42.6425988,42.7617592 43.5796902,42.5163681 L47.4113119,56.3654967 Z M50.9658409,30.2756411 C50.7021204,31.0941974 49.7294476,31.7328705 48.6995655,32.4090437 C47.7911949,33.0055293 46.8517779,33.6222883 46.2306161,34.4825634 C45.600966,35.3545573 45.3042223,36.4545985 45.0174786,37.5184287 C44.6975954,38.7048373 44.3953866,39.8252691 43.7191086,40.321442 C43.0549237,40.808357 41.9116697,40.7540991 40.7009741,40.6965599 C39.6023712,40.6445285 38.4662103,40.5902706 37.4366771,40.9271853 C36.4506322,41.2499204 35.5894708,41.9514061 34.7565652,42.629923 C33.7921482,43.4155496 32.881452,44.1573479 31.9999419,44.1573479 C31.1184317,44.1573479 30.2075029,43.4153152 29.2432022,42.6296887 C28.4104129,41.9512889 27.549019,41.2495688 26.5630903,40.9270682 C25.9137891,40.7146068 25.222046,40.6576536 24.5241402,40.6576536 C24.1155362,40.6576536 23.7046067,40.6771067 23.2989097,40.6964427 C22.0884465,40.7540991 20.9450763,40.808357 20.2808914,40.3213248 C19.6046134,39.8252691 19.3024046,38.7047201 18.9825214,37.5183115 C18.6957777,36.4544813 18.399034,35.3543229 17.7693839,34.4824462 C17.1483384,33.6222883 16.2090376,33.0055293 15.3004345,32.4089265 C14.2705524,31.7327533 13.2978796,31.093963 13.0341591,30.2754067 C12.7882293,29.5120459 13.1881123,28.4458719 13.6113675,27.3172369 C14.0054366,26.2665317 14.4128778,25.1802015 14.4128778,24.0650431 C14.4128778,22.9498846 14.0054366,21.86332 13.6114837,20.8128492 C13.1881123,19.6842142 12.7883456,18.6180402 13.0342754,17.8545622 C13.2979959,17.0360059 14.2706687,16.3973328 15.3005507,15.7211596 C16.2089213,15.1246741 17.1483384,14.507915 17.7695002,13.6478743 C18.3991503,12.7758804 18.695894,11.6758392 18.9826377,10.612009 C19.3025209,9.42560043 19.6047297,8.30516856 20.2810077,7.80899571 C20.9450763,7.32196351 22.0886791,7.37622143 23.2991422,7.43387779 C24.3976288,7.48602633 25.533906,7.54016706 26.5634392,7.20325234 C27.5494841,6.88051734 28.4106454,6.17903159 29.243551,5.50063183 C30.2077355,4.71477092 31.1186642,3.97273823 32.0000581,3.97273823 C32.881452,3.97273823 33.7924971,4.71477092 34.7566815,5.50016308 C35.5894708,6.17868003 36.4508648,6.88028296 37.4367934,7.20290078 C38.4663266,7.5398155 39.6022549,7.48590914 40.7009741,7.43352623 C41.9114372,7.37610424 43.0549237,7.32172914 43.7189923,7.80864415 C44.3952703,8.3046998 44.6974791,9.42524887 45.0173623,10.6116574 C45.304106,11.6754876 45.6008497,12.775646 46.2304998,13.6475227 C46.8515453,14.5076807 47.7908461,15.1244397 48.699333,15.720808 C49.729215,16.3969812 50.7018878,17.0356543 50.9657246,17.8543278 C51.2116544,18.6178059 50.8118877,19.6838626 50.3885163,20.8126148 C49.9944471,21.8632028 49.5870059,22.9496503 49.5870059,24.0648087 C49.5870059,25.1800843 49.9946797,26.2662974 50.3887488,27.3170025 C50.8120039,28.4457547 51.211887,29.5119287 50.9658409,30.2756411 Z M44.8551533,18.0940939 C44.6287583,17.5995617 44.0472476,17.3837019 43.556667,17.6118664 C43.0659702,17.8401481 42.8517845,18.4260867 43.0781794,18.920619 C43.8187596,20.5376924 44.1943404,22.268438 44.1943404,24.0648087 C44.1943404,30.8414235 38.7240006,36.3545202 32.0000581,36.3545202 C25.2759994,36.3545202 19.8056596,30.8414235 19.8056596,24.0648087 C19.8056596,17.2883111 25.2759994,11.7750972 32.0000581,11.7750972 C35.4387734,11.7750972 38.7353959,13.2499048 41.0443456,15.8213551 C41.4071357,16.225184 42.025623,16.2562388 42.4266689,15.8909646 C42.8273659,15.5253389 42.8582961,14.901783 42.495506,14.4978369 C39.8160918,11.5140029 35.990633,9.80271054 32.0000581,9.80271054 C24.1968152,9.80271054 17.8484535,16.2006918 17.8484535,24.0649259 C17.8484535,31.92916 24.1968152,38.3271412 32.0000581,38.3271412 C39.8031848,38.3271412 46.1515465,31.92916 46.1515465,24.0649259 C46.1514302,21.9810937 45.7152681,19.9721445 44.8551533,18.0940939 Z M35.7797031,17.9310858 L28.2204132,17.9310858 C27.679949,17.9310858 27.2418102,18.3726491 27.2418102,18.9173377 C27.2418102,19.4620263 27.679949,19.9035896 28.2204132,19.9035896 L35.7797031,19.9035896 C36.3201673,19.9035896 36.7583061,19.4620263 36.7583061,18.9173377 C36.7583061,18.3726491 36.3201673,17.9310858 35.7797031,17.9310858 Z M35.7797031,28.2260277 L28.2204132,28.2260277 C27.679949,28.2260277 27.2418102,28.6675911 27.2418102,29.2122797 C27.2418102,29.7569682 27.679949,30.1985316 28.2204132,30.1985316 L35.7797031,30.1985316 C36.3201673,30.1985316 36.7583061,29.7569682 36.7583061,29.2122797 C36.7583061,28.6675911 36.3201673,28.2260277 35.7797031,28.2260277 Z M38.4895823,23.0785568 L35.5417965,23.0785568 C35.0013323,23.0785568 34.5631935,23.5201201 34.5631935,24.0648087 C34.5631935,24.6094973 35.0013323,25.0510606 35.5417965,25.0510606 L38.4895823,25.0510606 C39.0300466,25.0510606 39.4681854,24.6096144 39.4681854,24.0648087 C39.4681854,23.5201201 39.0300466,23.0785568 38.4895823,23.0785568 Z M32.4771504,23.0785568 L25.5104177,23.0785568 C24.9699534,23.0785568 24.5318146,23.5201201 24.5318146,24.0648087 C24.5318146,24.6094973 24.9699534,25.0510606 25.5104177,25.0510606 L32.4771504,25.0510606 C33.0176146,25.0510606 33.4557534,24.6094973 33.4557534,24.0648087 C33.4557534,23.5201201 33.0176146,23.0785568 32.4771504,23.0785568 Z" id="Shape" fill="#FF7F57" fill-rule="nonzero"></path>
                    </g>
                </g>
            </g>
        </g>
    </g>
</svg>